<mxfile host="app.diagrams.net" modified="2022-09-16T03:24:21.302Z" agent="5.0 (Windows NT 10.0; Win64; x64) AppleWebKit/537.36 (KHTML, like Gecko) Chrome/105.0.0.0 Safari/537.36" etag="8AjPI5qN8EGcTFXQHT0O" version="20.3.1" type="github">
  <diagram id="C5RBs43oDa-KdzZeNtuy" name="Page-1">
    <mxGraphModel dx="1550" dy="835" grid="1" gridSize="10" guides="1" tooltips="1" connect="1" arrows="1" fold="1" page="1" pageScale="1" pageWidth="827" pageHeight="1169" math="0" shadow="0">
      <root>
        <mxCell id="WIyWlLk6GJQsqaUBKTNV-0" />
        <mxCell id="WIyWlLk6GJQsqaUBKTNV-1" parent="WIyWlLk6GJQsqaUBKTNV-0" />
        <mxCell id="2xPlspb_NTKyKSJbrLPu-11" value="" style="edgeStyle=orthogonalEdgeStyle;rounded=0;orthogonalLoop=1;jettySize=auto;html=1;fontSize=14;" edge="1" parent="WIyWlLk6GJQsqaUBKTNV-1" source="2xPlspb_NTKyKSJbrLPu-0" target="2xPlspb_NTKyKSJbrLPu-3">
          <mxGeometry relative="1" as="geometry" />
        </mxCell>
        <mxCell id="2xPlspb_NTKyKSJbrLPu-0" value="Motion" style="strokeWidth=2;html=1;shape=mxgraph.flowchart.start_1;whiteSpace=wrap;fillColor=#1ba1e2;strokeColor=#006EAF;fontColor=#ffffff;fontSize=14;" vertex="1" parent="WIyWlLk6GJQsqaUBKTNV-1">
          <mxGeometry x="50" y="120" width="70" height="40" as="geometry" />
        </mxCell>
        <mxCell id="2xPlspb_NTKyKSJbrLPu-12" value="" style="edgeStyle=orthogonalEdgeStyle;rounded=0;orthogonalLoop=1;jettySize=auto;html=1;fontSize=14;" edge="1" parent="WIyWlLk6GJQsqaUBKTNV-1" source="2xPlspb_NTKyKSJbrLPu-3" target="2xPlspb_NTKyKSJbrLPu-4">
          <mxGeometry relative="1" as="geometry" />
        </mxCell>
        <mxCell id="2xPlspb_NTKyKSJbrLPu-3" value="Sensors/Inputs" style="strokeWidth=2;html=1;shape=mxgraph.flowchart.stored_data;whiteSpace=wrap;direction=west;fillColor=#1ba1e2;fontColor=#ffffff;strokeColor=#006EAF;fontSize=14;" vertex="1" parent="WIyWlLk6GJQsqaUBKTNV-1">
          <mxGeometry x="160" y="120" width="120" height="40" as="geometry" />
        </mxCell>
        <mxCell id="2xPlspb_NTKyKSJbrLPu-13" value="" style="edgeStyle=orthogonalEdgeStyle;rounded=0;orthogonalLoop=1;jettySize=auto;html=1;fontSize=14;" edge="1" parent="WIyWlLk6GJQsqaUBKTNV-1" source="2xPlspb_NTKyKSJbrLPu-4" target="2xPlspb_NTKyKSJbrLPu-5">
          <mxGeometry relative="1" as="geometry" />
        </mxCell>
        <mxCell id="2xPlspb_NTKyKSJbrLPu-4" value="Render" style="strokeWidth=2;html=1;shape=mxgraph.flowchart.stored_data;whiteSpace=wrap;direction=west;fillColor=#1ba1e2;fontColor=#ffffff;strokeColor=#006EAF;fontSize=14;" vertex="1" parent="WIyWlLk6GJQsqaUBKTNV-1">
          <mxGeometry x="314" y="120" width="76" height="40" as="geometry" />
        </mxCell>
        <mxCell id="2xPlspb_NTKyKSJbrLPu-14" value="" style="edgeStyle=orthogonalEdgeStyle;rounded=0;orthogonalLoop=1;jettySize=auto;html=1;fontSize=14;" edge="1" parent="WIyWlLk6GJQsqaUBKTNV-1" source="2xPlspb_NTKyKSJbrLPu-5" target="2xPlspb_NTKyKSJbrLPu-6">
          <mxGeometry relative="1" as="geometry" />
        </mxCell>
        <mxCell id="2xPlspb_NTKyKSJbrLPu-5" value="Display" style="strokeWidth=2;html=1;shape=mxgraph.flowchart.stored_data;whiteSpace=wrap;direction=west;fillColor=#1ba1e2;fontColor=#ffffff;strokeColor=#006EAF;fontSize=14;" vertex="1" parent="WIyWlLk6GJQsqaUBKTNV-1">
          <mxGeometry x="440" y="120" width="80" height="40" as="geometry" />
        </mxCell>
        <mxCell id="2xPlspb_NTKyKSJbrLPu-6" value="Photons" style="strokeWidth=2;html=1;shape=mxgraph.flowchart.start_1;whiteSpace=wrap;fillColor=#1ba1e2;strokeColor=#006EAF;fontColor=#ffffff;fontSize=14;" vertex="1" parent="WIyWlLk6GJQsqaUBKTNV-1">
          <mxGeometry x="560" y="120" width="70" height="40" as="geometry" />
        </mxCell>
      </root>
    </mxGraphModel>
  </diagram>
</mxfile>
